<?xml version="1.0" standalone="no"?>
<!DOCTYPE svg PUBLIC "-//W3C//DTD SVG 20010904//EN"
 "http://www.w3.org/TR/2001/REC-SVG-20010904/DTD/svg10.dtd">
<svg version="1.0" xmlns="http://www.w3.org/2000/svg"
 width="655.000000pt" height="655.000000pt" viewBox="0 0 655.000000 655.000000"
 preserveAspectRatio="xMidYMid meet">
<metadata>
Created by potrace 1.11, written by Peter Selinger 2001-2013
</metadata>
<g transform="translate(0.000000,655.000000) scale(0.100000,-0.100000)"
fill="#000000" stroke="none">
<path d="M3099 6546 c-2 -2 -65 -7 -139 -11 -74 -3 -137 -8 -140 -10 -3 -1
-45 -6 -95 -10 -49 -4 -92 -8 -95 -10 -3 -2 -34 -6 -70 -10 -36 -4 -67 -8 -70
-10 -3 -2 -25 -6 -50 -9 -46 -6 -74 -11 -122 -21 -23 -5 -40 -34 -131 -218
-162 -326 -279 -616 -385 -952 -43 -139 -56 -184 -102 -365 -42 -162 -46 -151
53 -130 45 11 93 21 107 24 14 3 63 14 110 24 47 10 177 38 290 62 113 24 208
46 212 49 4 4 26 69 48 146 54 186 199 620 214 642 2 3 82 12 159 18 74 6 76
5 51 -53 -18 -44 -115 -303 -118 -317 -2 -8 -41 -130 -116 -359 l-10 -29 38 6
c20 3 125 24 232 47 107 22 204 42 215 44 11 2 65 14 121 25 100 21 121 26
180 37 28 5 34 14 79 122 97 234 253 553 378 777 46 83 96 173 112 200 15 28
33 57 40 65 6 8 21 31 32 51 l21 37 -57 12 c-31 6 -76 16 -101 21 -66 15 -250
49 -290 55 -71 10 -102 14 -148 19 -26 3 -63 8 -82 10 -19 3 -55 7 -80 9 l-46
5 -48 -87 c-26 -48 -93 -179 -149 -292 -55 -113 -101 -206 -103 -208 -1 -2
-53 -6 -114 -8 -92 -5 -112 -3 -108 8 21 53 117 253 195 407 81 157 102 205
82 187z"/>
<path d="M2015 6370 c-210 -70 -504 -198 -645 -280 -179 -104 -266 -157 -365
-224 -184 -123 -420 -302 -440 -332 l-17 -27 43 7 c59 9 118 37 203 94 102 70
104 70 70 27 -80 -103 -246 -373 -339 -550 -88 -170 -202 -445 -248 -600 l-14
-50 405 101 c276 69 406 106 408 115 1 8 18 75 37 149 104 393 245 763 425
1115 l87 170 170 57 c94 31 172 56 175 55 3 0 22 3 42 7 35 8 41 16 93 108 31
55 55 101 53 103 -2 1 -66 -19 -143 -45z"/>
<path d="M4277 6322 c-206 -327 -442 -764 -548 -1012 -13 -30 -29 -66 -36 -80
-7 -13 -11 -26 -9 -28 2 -2 71 10 152 27 82 17 160 32 174 35 14 2 165 32 335
66 171 34 321 64 335 66 82 15 518 109 575 124 32 9 -317 4 -445 -6 -133 -10
-184 -14 -217 -19 -18 -3 -33 -3 -33 -1 0 6 58 77 117 144 37 41 61 61 72 58
9 -3 36 -8 61 -11 69 -10 387 -65 460 -80 61 -13 79 -10 80 15 0 7 -336 107
-450 134 -63 15 -100 28 -100 34 0 7 8 16 95 119 l45 52 112 -56 c62 -31 170
-89 239 -129 96 -55 140 -75 180 -80 l53 -7 -34 30 c-281 241 -650 446 -1097
609 l-93 34 -23 -38z"/>
<path d="M5073 5425 c-213 -38 -338 -168 -334 -346 1 -61 17 -107 95 -270 35
-74 78 -168 96 -209 18 -41 38 -88 45 -105 132 -302 314 -939 350 -1221 23
-187 168 -307 370 -307 269 1 609 231 688 467 34 100 4 374 -73 666 -17 63
-34 118 -39 123 -10 10 -95 -12 -308 -79 l-142 -44 29 -108 c16 -59 31 -118
34 -132 27 -137 38 -190 42 -220 3 -19 9 -59 14 -89 21 -120 4 -163 -67 -174
-37 -6 -52 7 -57 49 -6 45 -47 268 -51 274 -2 3 -6 21 -9 40 -3 19 -13 62 -21
95 -9 33 -20 76 -25 95 -77 319 -269 773 -464 1103 -38 64 -44 82 -36 97 6 11
20 21 30 21 11 1 26 2 33 3 24 4 52 -16 80 -55 53 -77 125 -196 180 -300 31
-57 60 -104 64 -104 4 0 103 27 220 60 l212 59 -31 56 c-100 177 -222 346
-299 413 -72 63 -196 122 -299 142 -68 13 -255 13 -327 0z"/>
<path d="M4449 5256 c-2 -2 -21 -7 -43 -10 -21 -4 -42 -8 -46 -11 -4 -3 -41
-12 -81 -21 -76 -16 -107 -23 -124 -28 -5 -2 -29 -7 -53 -11 -23 -4 -45 -11
-47 -16 -3 -4 3 -23 13 -41 123 -222 395 -912 477 -1213 8 -27 29 -106 48
-175 70 -252 118 -471 166 -750 24 -137 27 -159 36 -227 4 -29 10 -55 14 -57
8 -5 441 116 461 129 7 4 9 23 6 48 -3 23 -8 67 -11 98 -3 31 -7 66 -9 76 -3
11 -7 44 -11 74 -3 30 -15 106 -26 169 -11 63 -22 124 -24 135 -8 45 -35 167
-64 281 -102 413 -241 785 -436 1169 -163 320 -219 407 -246 381z"/>
<path d="M3929 5136 c-2 -3 -16 -7 -29 -9 -48 -9 -293 -67 -296 -70 -2 -2 15
-48 37 -102 84 -208 283 -790 313 -915 9 -34 13 -41 -185 290 -200 334 -189
315 -259 426 -30 48 -62 99 -70 113 -57 95 -83 131 -95 131 -7 0 -69 -13 -137
-29 -68 -16 -172 -41 -232 -55 -60 -14 -110 -27 -112 -28 -1 -2 8 -48 22 -103
14 -55 28 -111 30 -125 3 -14 10 -43 16 -65 5 -22 11 -47 13 -55 2 -8 40 -159
85 -335 45 -176 83 -327 85 -335 2 -8 40 -159 85 -335 45 -176 83 -327 85
-335 2 -8 22 -87 45 -175 23 -88 44 -167 45 -175 14 -61 124 -482 127 -484 2
-3 146 29 231 50 9 2 27 6 40 9 95 21 127 29 127 33 0 2 -18 86 -41 185 -23
100 -43 189 -44 197 -21 96 -181 727 -224 880 -12 41 -21 79 -21 85 0 5 20
-26 43 -70 69 -128 128 -236 155 -285 50 -90 340 -668 396 -791 l58 -125 147
38 c80 21 190 50 244 64 l98 27 -5 36 c-4 20 -9 54 -12 76 -10 71 -55 329 -59
334 -1 3 -6 23 -9 44 -7 44 -30 152 -53 246 -8 36 -17 74 -19 85 -2 11 -24 96
-49 190 -121 452 -291 926 -467 1306 -24 52 -51 110 -59 128 -12 28 -36 41
-50 28z"/>
<path d="M2328 4785 c-32 -6 -58 -9 -58 -6 0 3 -5 0 -12 -7 -7 -7 -20 -12 -29
-12 -9 0 -58 -21 -108 -46 -105 -52 -218 -155 -263 -239 -53 -99 -68 -231 -44
-376 3 -19 8 -54 11 -79 7 -68 15 -126 30 -220 8 -47 16 -101 19 -120 51 -336
239 -1089 312 -1250 28 -62 120 -157 181 -188 42 -22 117 -48 160 -57 62 -13
216 -12 293 1 264 46 448 195 478 388 12 75 6 129 -29 266 -17 63 -32 122 -34
130 -2 8 -29 112 -60 230 -31 118 -60 231 -65 250 -4 19 -20 82 -35 140 -15
58 -28 112 -30 120 -2 8 -11 44 -20 80 -9 36 -18 72 -20 80 -3 13 -15 63 -29
120 -6 21 -39 158 -85 353 -43 179 -57 217 -103 283 -88 125 -288 194 -460
159z m71 -384 c5 -20 12 -52 15 -71 3 -19 8 -51 11 -70 5 -31 91 -461 100
-500 2 -8 10 -44 18 -80 8 -36 25 -108 37 -160 12 -52 23 -102 25 -110 2 -8
20 -80 40 -160 20 -80 38 -152 40 -160 5 -21 62 -236 79 -295 8 -27 23 -79 34
-115 25 -86 16 -116 -39 -130 -88 -24 -100 -6 -174 275 -8 28 -30 110 -49 183
-20 73 -38 147 -41 164 -3 17 -8 35 -11 40 -9 14 -105 443 -130 578 -3 14 -13
68 -24 120 -11 52 -22 111 -25 130 -7 44 -16 99 -21 125 -5 21 -20 123 -30
190 -7 48 10 74 57 91 47 15 77 0 88 -45z"/>
<path d="M1274 4524 c-306 -65 -542 -300 -580 -576 -13 -87 -4 -585 11 -631 2
-7 6 -41 10 -77 7 -72 12 -109 25 -190 5 -30 12 -73 16 -95 31 -208 167 -678
229 -791 64 -115 169 -190 326 -231 13 -3 85 -8 159 -9 285 -7 482 79 588 256
23 40 26 55 26 135 0 71 -5 106 -26 165 -29 81 -92 284 -113 365 -7 28 -23 86
-35 130 -13 44 -23 86 -23 93 -1 18 -11 16 -214 -33 -101 -25 -189 -45 -193
-45 -5 0 -20 -4 -33 -9 l-25 -10 33 -128 c32 -121 66 -233 134 -438 28 -86 29
-91 12 -108 -9 -9 -33 -20 -54 -22 -28 -4 -41 0 -57 17 -28 31 -123 331 -184
588 -35 144 -90 436 -101 539 -4 30 -8 61 -10 70 -1 9 -6 52 -10 96 -4 44 -8
94 -11 110 -4 37 -17 303 -17 366 0 72 9 95 47 113 70 33 79 18 82 -142 3
-185 18 -388 30 -401 2 -2 69 13 150 34 80 20 151 38 157 39 7 1 38 8 70 16
65 15 65 15 47 140 -5 36 -12 97 -15 135 -4 39 -8 81 -11 95 -2 14 -4 60 -5
102 -1 124 -32 212 -93 265 -29 26 -99 62 -130 69 -51 11 -156 10 -212 -2z"/>
<path d="M480 4283 c-96 -29 -191 -58 -211 -63 l-36 -10 -26 -117 c-29 -125
-54 -263 -63 -347 -3 -28 -7 -64 -9 -81 -7 -51 -18 -255 -19 -345 0 -91 11
-319 18 -360 3 -14 7 -47 11 -75 7 -55 14 -106 21 -139 2 -11 7 -37 10 -56 25
-144 98 -388 171 -575 44 -111 183 -408 198 -423 2 -2 30 4 62 13 78 23 304
80 375 95 l58 11 -24 47 c-127 253 -273 671 -326 930 -30 143 -51 263 -55 312
-3 30 -7 64 -10 75 -26 133 -27 727 -1 873 2 9 7 44 10 77 10 85 16 125 26
168 4 20 5 39 1 40 -3 2 -85 -20 -181 -50z"/>
<path d="M6218 2894 c-2 -1 -30 -4 -63 -5 -33 -1 -76 -6 -95 -10 -19 -4 -46
-10 -60 -12 -49 -9 -117 -29 -295 -87 -186 -60 -579 -180 -651 -199 -40 -11
-42 -13 -49 -57 -3 -25 -8 -53 -10 -62 -1 -10 -8 -53 -15 -97 -6 -44 -13 -91
-15 -105 -2 -14 -7 -47 -10 -75 -4 -27 -8 -57 -10 -65 -2 -8 -7 -39 -10 -69
-4 -30 -9 -63 -11 -75 -2 -11 -6 -38 -9 -61 -3 -22 -8 -51 -10 -65 -2 -14 -7
-45 -10 -70 -3 -25 -8 -56 -10 -70 -9 -43 -12 -64 -20 -110 -5 -37 -23 -142
-59 -345 -41 -228 -137 -597 -216 -830 -23 -66 -45 -132 -50 -147 l-8 -26 31
14 c18 8 44 19 59 25 45 18 198 97 289 151 81 48 90 56 127 122 21 39 69 134
106 211 37 77 70 147 74 155 5 8 35 83 68 167 53 136 62 154 89 164 70 28 286
139 362 187 227 141 376 286 466 452 89 164 214 596 222 763 7 135 -42 204
-160 226 -24 5 -46 7 -47 5z m-457 -479 c18 -12 27 -48 18 -78 -4 -15 -11 -51
-14 -80 -4 -28 -8 -54 -10 -57 -2 -3 -12 -59 -24 -125 -35 -204 -57 -296 -79
-340 -21 -44 -81 -96 -146 -129 -31 -15 -59 -26 -61 -24 -2 2 0 22 5 44 9 40
65 343 74 399 8 56 26 160 31 185 3 14 8 39 10 55 26 146 24 142 69 153 42 10
108 8 127 -3z"/>
<path d="M4848 2525 c-3 -3 -139 -41 -302 -84 -163 -42 -298 -80 -300 -82 -3
-2 -7 -16 -10 -29 -2 -14 -16 -77 -30 -140 -21 -99 -45 -226 -62 -335 -2 -16
-6 -41 -9 -55 -2 -14 -7 -45 -10 -70 -5 -41 -10 -77 -20 -150 -2 -14 -6 -50
-10 -80 -3 -30 -8 -66 -10 -80 -2 -14 -7 -52 -10 -85 -3 -33 -8 -78 -10 -100
-20 -187 -27 -243 -30 -265 -2 -14 -6 -54 -10 -90 -4 -36 -8 -76 -10 -90 -3
-14 -6 -45 -9 -70 -3 -25 -7 -63 -11 -85 -12 -84 -27 -181 -31 -205 -2 -14 -7
-45 -10 -70 -3 -25 -17 -98 -30 -164 -27 -133 -28 -139 -15 -132 5 3 26 8 47
12 22 3 57 10 79 16 22 5 47 11 55 13 32 6 228 65 280 85 30 11 55 20 56 20 6
0 109 320 119 368 2 9 19 80 38 157 37 147 49 203 77 355 6 30 12 66 15 80 3
14 12 66 21 115 8 50 17 104 20 120 3 17 7 44 10 60 5 41 25 176 29 195 2 9 7
43 11 75 4 33 8 62 9 65 1 3 5 30 9 60 5 30 10 62 11 71 2 9 6 40 10 69 4 29
8 60 10 69 3 17 11 69 20 136 3 22 16 104 29 183 20 129 20 142 6 142 -9 0
-19 -2 -22 -5z"/>
<path d="M3570 2193 c-62 -8 -170 -30 -525 -108 -209 -46 -397 -87 -417 -91
-33 -5 -45 -17 -110 -107 -133 -183 -156 -228 -185 -352 -5 -24 -5 -179 1
-215 2 -14 7 -52 11 -85 4 -33 9 -68 11 -79 2 -10 6 -44 9 -75 3 -31 8 -74 10
-96 2 -22 7 -67 10 -100 11 -119 16 -171 20 -205 2 -19 7 -66 10 -105 3 -38 8
-97 11 -130 2 -33 7 -80 9 -105 14 -167 19 -206 29 -212 28 -18 293 -72 461
-94 28 -3 53 -8 57 -10 8 -5 21 15 25 36 5 33 16 451 18 690 2 140 3 260 4
266 1 7 19 10 49 8 63 -5 106 -20 128 -45 21 -24 23 -79 9 -304 -15 -243 -12
-521 8 -586 9 -31 24 -62 32 -69 17 -14 111 -16 265 -6 133 9 297 30 306 38 1
2 -6 30 -17 62 -27 80 -29 205 -4 376 2 14 7 50 10 80 4 30 9 64 11 75 2 11 7
40 10 65 3 25 8 54 10 65 2 11 7 54 10 95 9 118 -31 202 -125 261 -51 33 -152
67 -206 71 -19 1 -35 3 -35 4 0 1 34 18 75 37 127 61 206 124 262 211 38 59
53 112 59 206 5 88 21 161 56 265 23 68 20 147 -6 188 -19 28 -85 63 -141 73
-42 7 -182 12 -225 7z m-298 -324 c19 -10 16 -44 -7 -90 -28 -53 -46 -161 -46
-267 1 -72 -4 -112 -14 -132 -17 -32 -81 -66 -141 -75 -38 -5 -42 -3 -46 17
-11 59 -6 278 8 348 24 116 76 206 122 213 35 4 103 -3 124 -14z"/>
<path d="M2018 1805 c-2 -1 -32 -6 -68 -9 -36 -4 -81 -11 -100 -16 -19 -5 -48
-11 -65 -14 -16 -3 -91 -19 -165 -36 -74 -17 -146 -33 -160 -36 -14 -3 -81
-18 -150 -34 -136 -31 -187 -42 -195 -41 -2 0 -23 -6 -45 -14 -22 -8 -43 -14
-45 -14 -47 3 -260 -66 -301 -97 -57 -42 -51 -74 41 -228 94 -158 202 -279
446 -501 135 -123 310 -250 491 -358 190 -113 314 -158 418 -152 92 6 140 39
165 112 13 36 13 55 1 148 -3 22 -8 62 -11 89 -4 28 -8 53 -10 56 -2 3 -6 33
-10 65 -3 33 -9 68 -11 78 -3 10 -16 97 -28 195 -23 173 -28 445 -12 527 4 17
9 44 12 60 4 17 15 42 25 56 43 61 37 118 -17 144 -30 14 -194 30 -206 20z
m-441 -198 c2 -2 -6 -16 -17 -30 -93 -117 -63 -345 100 -783 44 -117 80 -218
80 -223 0 -30 -123 -6 -133 27 -3 9 -40 91 -82 181 -170 363 -226 582 -184
721 15 48 66 100 111 110 31 7 116 5 125 -3z"/>
</g>
</svg>
